HIERARCHY
ROOT Hips
{
	OFFSET -3.958830 18.904000 13.208200
	CHANNELS 6 Xposition Yposition Zposition Zrotation Yrotation Xrotation 
	JOINT LHipJoint
	{
		OFFSET 0.000000 0.000000 0.000000
		CHANNELS 3 Zrotation Yrotation Xrotation
		JOINT LeftUpLeg
		{
			OFFSET 1.800000 -1.400000 0.085000
			CHANNELS 3 Zrotation Yrotation Xrotation
			JOINT LeftLeg
			{
				OFFSET 2.215000 -6.000000 0.000000
				CHANNELS 3 Zrotation Yrotation Xrotation
				JOINT LeftFoot
				{
					OFFSET 2.500000 -6.900000 0.000000
					CHANNELS 3 Zrotation Yrotation Xrotation
					JOINT LeftToeBase
					{
						OFFSET 0.200000 -0.500000 1.950000
						CHANNELS 3 Zrotation Yrotation Xrotation
						End Site
						{
							OFFSET 0.000000 0.000000 0.000000
						}
					}
				}
			}
		}
	}
	JOINT RHipJoint
	{
		OFFSET 0.000000 0.000000 0.000000
		CHANNELS 3 Zrotation Yrotation Xrotation
		JOINT RightUpLeg
		{
			OFFSET -1.800000 -1.400000 0.085000
			CHANNELS 3 Zrotation Yrotation Xrotation
			JOINT RightLeg
			{
				OFFSET -2.215000 -6.000000 0.000000
				CHANNELS 3 Zrotation Yrotation Xrotation
				JOINT RightFoot
				{
					OFFSET -2.500000 -6.900000 0.000000
					CHANNELS 3 Zrotation Yrotation Xrotation
					JOINT RightToeBase
					{
						OFFSET -0.200000 -0.500000 1.950000
						CHANNELS 3 Zrotation Yrotation Xrotation
						End Site
						{
							OFFSET 0.000000 0.000000 0.000000
						}
					}
				}
			}
		}
	}
	JOINT LowerBack
	{
		OFFSET 0.000000 0.000000 0.000000
		CHANNELS 3 Zrotation Yrotation Xrotation
		JOINT Spine
		{
			OFFSET -0.087000 1.940000 -0.288900
			CHANNELS 3 Zrotation Yrotation Xrotation
			JOINT Spine1
			{
				OFFSET 0.000000 1.950000 0.060000
				CHANNELS 3 Zrotation Yrotation Xrotation
				JOINT Neck
				{
					OFFSET 0.000000 0.000000 0.000000
					CHANNELS 3 Zrotation Yrotation Xrotation
					JOINT Neck1
					{
						OFFSET 0.000000 1.600000 0.340000
						CHANNELS 3 Zrotation Yrotation Xrotation
						JOINT Head
						{
							OFFSET 0.000000 1.667000 -0.240000
							CHANNELS 3 Zrotation Yrotation Xrotation
							End Site
							{
								OFFSET 0.000000 0.000000 0.000000
							}
						}
					}
				}
				JOINT LeftShoulder
				{
					OFFSET 0.000000 0.000000 0.000000
					CHANNELS 3 Zrotation Yrotation Xrotation
					JOINT LeftArm
					{
						OFFSET 2.700000 1.550000 -0.730000
						CHANNELS 3 Zrotation Yrotation Xrotation
						JOINT LeftForeArm
						{
							OFFSET 5.450000 0.000000 0.000000
							CHANNELS 3 Zrotation Yrotation Xrotation
							JOINT LeftHand
							{
								OFFSET 3.450000 0.000000 0.000000
								CHANNELS 3 Zrotation Yrotation Xrotation
								JOINT LeftHandIndex1
								{
									OFFSET 0.750000 0.000000 0.000000
									CHANNELS 3 Zrotation Yrotation Xrotation
									End Site
									{
										OFFSET 0.000000 0.000000 0.000000
									}
								}
							}
						}
					}
				}
				JOINT RightShoulder
				{
					OFFSET 0.000000 0.000000 0.000000
					CHANNELS 3 Zrotation Yrotation Xrotation
					JOINT RightArm
					{
						OFFSET -2.700000 1.550000 -0.730000
						CHANNELS 3 Zrotation Yrotation Xrotation
						JOINT RightForeArm
						{
							OFFSET -5.450000 0.000000 0.000000
							CHANNELS 3 Zrotation Yrotation Xrotation
							JOINT RightHand
							{
								OFFSET -3.450000 0.000000 0.000000
								CHANNELS 3 Zrotation Yrotation Xrotation
								JOINT RightHandIndex1
								{
									OFFSET -0.750000 0.000000 0.000000
									CHANNELS 3 Zrotation Yrotation Xrotation
									End Site
									{
										OFFSET 0.000000 0.000000 0.000000
									}
								}
							}
						}
					}
				}
			}
		}
	}
}
MOTION
Frames: 9
Frame Time: 0.016667
1.078330 16.976190 -1.332680 -6.369061 -13.306740 14.143270 -15.288101 13.136182 3.729934 -5.087430 -3.894914 -19.170002 -5.685699 3.234444 6.022618 -1.040705 3.135356 3.875103 0.309970 -0.262950 0.248190 18.016247 -10.709292 3.101754 -10.781022 -0.410096 7.883132 7.085331 -6.110726 3.141545 -0.964256 -5.182860 2.825016 -0.131590 0.593980 0.559750 -2.820823 -2.315210 -8.317327 7.637847 5.244945 8.195226 1.054313 5.919306 -7.219970 3.594888 -1.362965 -11.901166 -5.775040 2.331035 41.216180 -5.157990 2.292790 -14.389080 -17.889205 -5.194630 2.242208 2.716425 7.023870 0.790806 10.613404 -3.883039 -1.200981 -4.087123 2.369698 1.110940 0.241780 0.138110 0.362070 11.946844 8.478903 8.954243 -0.399041 -9.995651 -2.129341 -14.634948 3.588691 0.369024 2.137776 -1.074749 -0.439730 0.407460 0.105980 -0.244140 
1.079640 16.974060 -1.337380 -6.255953 -13.392201 14.079358 -15.294419 13.123272 3.731024 -5.220049 -3.921674 -19.152388 -5.666726 3.236245 6.073179 -1.040025 3.135043 3.878320 0.308010 -0.264140 0.248930 18.013024 -10.708030 3.099186 -10.859595 -0.394066 7.995859 7.028448 -6.110013 3.112710 -0.966556 -5.195844 2.821463 -0.131960 0.598010 0.557860 -2.806406 -2.301063 -8.309894 7.406620 5.292763 8.152547 1.145046 5.917116 -7.102522 3.578447 -1.357355 -11.881486 -5.760269 2.320616 41.194033 -5.184720 2.294410 -14.345820 -17.898323 -5.210587 2.246867 2.713604 6.991412 0.788436 10.567854 -3.872310 -1.202735 -4.089122 2.365419 1.108870 0.243720 0.136640 0.362090 12.009778 8.482619 8.945344 -0.456312 -9.980479 -2.120423 -14.566928 3.557964 0.364904 2.138784 -1.072236 -0.441600 0.412100 0.106130 -0.243000 
1.080830 16.972630 -1.341880 -6.159426 -13.483828 14.019768 -15.299867 13.113183 3.732402 -5.323368 -3.944332 -19.139107 -5.669241 3.242473 6.128071 -1.041214 3.138461 3.879488 0.305940 -0.266210 0.247770 18.009672 -10.706854 3.097458 -10.939507 -0.376639 8.092712 6.987546 -6.111746 3.084168 -0.968114 -5.208527 2.819179 -0.131830 0.602120 0.556390 -2.792720 -2.290421 -8.305286 7.206532 5.338463 8.117655 1.222663 5.922520 -7.026728 3.565365 -1.348715 -11.866266 -5.747177 2.322387 41.222491 -5.207380 2.298720 -14.279610 -17.929421 -5.228917 2.248306 2.733967 6.978520 0.792057 10.520615 -3.868553 -1.205336 -4.091476 2.361312 1.108180 0.246250 0.134650 0.362890 12.086396 8.489203 8.936581 -0.517612 -9.970840 -2.115213 -14.527785 3.522308 0.363337 2.137556 -1.070114 -0.444480 0.416450 0.107320 -0.242810 
1.082450 16.971590 -1.346110 -6.087888 -13.573329 13.967391 -15.303343 13.104960 3.733780 -5.409695 -3.962670 -19.125135 -5.663817 3.244788 6.169537 -1.041555 3.139940 3.880898 0.305580 -0.266430 0.247220 18.007617 -10.706460 3.096523 -11.011921 -0.360700 8.175457 6.959285 -6.114603 3.061204 -0.970163 -5.220131 2.816959 -0.131270 0.605160 0.556140 -2.783748 -2.280641 -8.302530 7.068265 5.376363 8.090057 1.271610 5.933037 -6.972721 3.554964 -1.341382 -11.854867 -5.740825 2.325652 41.275711 -5.211000 2.295310 -14.217840 -17.961620 -5.242554 2.247211 2.746920 6.965678 0.794030 10.475512 -3.870034 -1.207194 -4.092453 2.358797 1.107780 0.248200 0.133990 0.364550 12.152084 8.494777 8.929415 -0.563143 -9.966300 -2.108437 -14.475420 3.530348 0.359457 2.136241 -1.069104 -0.445950 0.419150 0.106940 -0.242020 
1.084120 16.970650 -1.350370 -6.010028 -13.667404 13.913872 -15.307359 13.097119 3.735590 -5.502387 -3.982818 -19.110151 -5.653198 3.246228 6.216827 -1.042189 3.140947 3.881646 0.306010 -0.265760 0.246200 18.004866 -10.706264 3.094354 -11.101982 -0.340243 8.243646 6.939160 -6.119596 3.049898 -0.971687 -5.231849 2.814789 -0.129910 0.607290 0.556520 -2.772954 -2.271687 -8.299271 6.915582 5.417591 8.067424 1.331226 5.944545 -6.920679 3.544835 -1.336913 -11.842482 -5.736900 2.330074 41.311946 -5.213110 2.291970 -14.165540 -17.990683 -5.251295 2.245479 2.744741 6.950455 0.795148 10.436530 -3.867393 -1.208802 -4.093200 2.357639 1.107390 0.250160 0.133600 0.366610 12.216893 8.499394 8.922179 -0.606849 -9.964436 -2.102658 -14.442958 3.532808 0.356251 2.134474 -1.069398 -0.446910 0.420590 0.106220 -0.241380 
1.085750 16.969900 -1.354560 -5.934794 -13.758627 13.865986 -15.311556 13.089273 3.737605 -5.591096 -4.001330 -19.096317 -5.650191 3.249114 6.255333 -1.043016 3.142366 3.883228 0.304740 -0.266670 0.244100 18.001841 -10.706454 3.091887 -11.189980 -0.319319 8.297574 6.917480 -6.123598 3.039174 -0.971929 -5.242014 2.814414 -0.129650 0.610920 0.555340 -2.761436 -2.261764 -8.296302 6.758257 5.461320 8.039024 1.396228 5.957221 -6.876386 3.537504 -1.321324 -11.839248 -5.712078 2.328746 41.361211 -5.221440 2.292210 -14.075640 -18.005572 -5.265495 2.251799 2.720260 6.946473 0.794208 10.414505 -3.872908 -1.209809 -4.094870 2.354445 1.106760 0.252890 0.131560 0.368130 12.263204 8.503717 8.920869 -0.609813 -9.968564 -2.103126 -14.434997 3.523825 0.353934 2.132418 -1.068784 -0.448990 0.423470 0.106550 -0.240930 
1.087360 16.969600 -1.358440 -5.877271 -13.843516 13.827623 -15.316066 13.083432 3.739342 -5.666617 -4.015010 -19.080477 -5.638563 3.248570 6.274362 -1.041765 3.141373 3.885404 0.304210 -0.266450 0.243320 17.998158 -10.705763 3.090394 -11.267371 -0.301741 8.341512 6.914441 -6.128202 3.023186 -0.972912 -5.250349 2.813753 -0.130090 0.613400 0.554840 -2.748469 -2.255289 -8.295100 6.617085 5.505941 8.014360 1.471875 5.972440 -6.863028 3.537910 -1.304231 -11.835578 -5.690552 2.318079 41.436282 -5.257030 2.293830 -13.989660 -18.018617 -5.263991 2.251071 2.672947 6.936285 0.788979 10.401941 -3.889634 -1.209698 -4.095943 2.352437 1.105270 0.254840 0.130690 0.369410 12.294020 8.497731 8.918464 -0.611459 -9.976372 -2.100898 -14.425433 3.507817 0.352884 2.131997 -1.068406 -0.449040 0.425310 0.106120 -0.239830 
1.089040 16.969420 -1.362150 -5.816924 -13.915293 13.790169 -15.321246 13.076640 3.740636 -5.748339 -4.027547 -19.056467 -5.617495 3.243688 6.275660 -1.040164 3.138096 3.887285 0.304550 -0.264640 0.242280 17.994242 -10.703919 3.088928 -11.349595 -0.284222 8.381431 6.927833 -6.133539 2.998038 -0.973892 -5.259962 2.812090 -0.129560 0.614380 0.554910 -2.734635 -2.249029 -8.293135 6.468826 5.551460 7.983210 1.560414 5.984098 -6.838909 3.539488 -1.285725 -11.828681 -5.662382 2.302243 41.487142 -5.299550 2.297290 -13.901980 -18.034207 -5.262998 2.249170 2.611467 6.906604 0.780323 10.404266 -3.889288 -1.208603 -4.096798 2.352625 1.102900 0.256630 0.130210 0.370730 12.326708 8.489888 8.916253 -0.620818 -9.991390 -2.095612 -14.424198 3.469418 0.352511 2.132222 -1.069950 -0.447960 0.425120 0.105000 -0.238570 
1.090450 16.969510 -1.365710 -5.760806 -13.982734 13.753535 -15.326622 13.069765 3.740929 -5.815724 -4.034919 -19.023027 -5.609121 3.239581 6.263553 -1.037499 3.134731 3.888226 0.306670 -0.260690 0.241900 17.990237 -10.701343 3.088181 -11.430279 -0.267879 8.419422 6.950451 -6.138128 2.959015 -0.975625 -5.270036 2.809898 -0.128180 0.613760 0.556020 -2.720462 -2.242849 -8.291085 6.317821 5.596206 7.948901 1.655491 5.993616 -6.816913 3.540584 -1.260997 -11.817332 -5.620233 2.291161 41.540899 -5.335370 2.311160 -13.827060 -18.049792 -5.257888 2.244933 2.561413 6.877320 0.772746 10.394096 -3.889565 -1.206797 -4.096663 2.355269 1.100180 0.257980 0.130710 0.372460 12.360472 8.472426 8.908625 -0.629958 -9.996091 -2.087966 -14.412387 3.420764 0.352204 2.132865 -1.072893 -0.445270 0.423010 0.102700 -0.237170 
